# xmcd
#
# Track frame offsets: 
#        150
#        32402
#        44662
#        57750
#        88965
#        107937
#        120540
#        143147
#        159320
#        179175
#        196575
#        216390
#        232972
#        255412
#        269162
#        292112
#
# Disc length: 4466 seconds
#
# Revision: 3
# Processed by: cddbd v1.5.2PL0 Copyright (c) Steve Scherf et al.
# Submitted via: ExactAudioCopyFreeDBPlugin 1.0
#
DISCID=f4117010
DTITLE=Eric Clapton - The Cream Of Eric Clapton
DYEAR=1989
DGENRE=Blues
TTITLE0=Layla
TTITLE1=Badge
TTITLE2=I Feel Free
TTITLE3=Sunshine Of Your Love
TTITLE4=Crossroads
TTITLE5=Strange Brew
TTITLE6=White Room
TTITLE7=Cocaine
TTITLE8=I Shot The Sheriff
TTITLE9=Lay Down Sally
TTITLE10=Knockin' On Heaven's Door
TTITLE11=Wonderful Tonight
TTITLE12=Let It Grow
TTITLE13=Promises
TTITLE14=After Midnight (Extended Version)
TTITLE15=Tell The Truth
EXTD=YEAR: 1989
EXTT0=
EXTT1=
EXTT2=
EXTT3=
EXTT4=
EXTT5=
EXTT6=
EXTT7=
EXTT8=
EXTT9=
EXTT10=
EXTT11=
EXTT12=
EXTT13=
EXTT14=
EXTT15=
PLAYORDER=
